<svg width="30" height="30" viewBox="0 0 30 30" fill="none" xmlns="http://www.w3.org/2000/svg">
<path d="M3.75 26.25V8.75H8.75V3.75H21.25V13.75H26.25V26.25H16.25V21.25H13.75V26.25H3.75ZM6.25 23.75H8.75V21.25H6.25V23.75ZM6.25 18.75H8.75V16.25H6.25V18.75ZM6.25 13.75H8.75V11.25H6.25V13.75ZM11.25 18.75H13.75V16.25H11.25V18.75ZM11.25 13.75H13.75V11.25H11.25V13.75ZM11.25 8.75H13.75V6.25H11.25V8.75ZM16.25 18.75H18.75V16.25H16.25V18.75ZM16.25 13.75H18.75V11.25H16.25V13.75ZM16.25 8.75H18.75V6.25H16.25V8.75ZM21.25 23.75H23.75V21.25H21.25V23.75ZM21.25 18.75H23.75V16.25H21.25V18.75Z" fill="#979797"/>
</svg>
