<svg width="24" height="24" viewBox="0 0 24 24" fill="none" xmlns="http://www.w3.org/2000/svg">
<path d="M9.30084 3.01807H4.92033C4.14581 3.01807 3.40301 3.32574 2.85535 3.8734C2.30768 4.42106 2 5.16385 2 5.93836V19.0797C2 19.8542 2.30768 20.597 2.85535 21.1446C3.40301 21.6923 4.14581 22 4.92033 22H18.0618C18.8364 22 19.5792 21.6923 20.1268 21.1446C20.6745 20.597 20.9822 19.8542 20.9822 19.0797V14.6992" stroke="#80848C" stroke-width="3" stroke-linecap="round" stroke-linejoin="round"/>
<path d="M9 14.9998H12.2175L21.3337 5.88379C21.7603 5.45713 22 4.87846 22 4.27507C22 3.67168 21.7603 3.09301 21.3337 2.66635C20.907 2.23969 20.3283 2 19.7249 2C19.1215 2 18.5429 2.23969 18.1162 2.66635L9 11.7824V14.9998Z" stroke="#80848C" stroke-width="3" stroke-linecap="round" stroke-linejoin="round"/>
<path d="M17 5L19 6.99998" stroke="#80848C" stroke-width="3" stroke-linecap="round" stroke-linejoin="round"/>
</svg>
