<svg width="30" height="23" viewBox="0 0 30 23" fill="none" xmlns="http://www.w3.org/2000/svg">
<path d="M25.1116 7.43896H10.6672C9.07171 7.43896 7.77832 8.65648 7.77832 10.1584V18.3166C7.77832 19.8185 9.07171 21.036 10.6672 21.036H25.1116C26.707 21.036 28.0004 19.8185 28.0004 18.3166V10.1584C28.0004 8.65648 26.707 7.43896 25.1116 7.43896Z" stroke="#80848C" stroke-width="3" stroke-linecap="round" stroke-linejoin="round"/>
<path d="M22.2221 7.43881V4.71941C22.2221 3.99818 21.9177 3.30648 21.376 2.7965C20.8342 2.28651 20.0994 2 19.3332 2H4.88887C4.1227 2 3.3879 2.28651 2.84613 2.7965C2.30436 3.30648 2 3.99818 2 4.71941V12.8776C2 13.5989 2.30436 14.2905 2.84613 14.8005C3.3879 15.3105 4.1227 15.597 4.88887 15.597H7.77774" stroke="#80848C" stroke-width="3" stroke-linecap="round" stroke-linejoin="round"/>
<path d="M19.5408 12.5244C19.4152 12.3449 19.2328 12.197 19.0129 12.0964C18.7931 11.9958 18.5442 11.9463 18.2928 11.9533H16.9062C16.5384 11.9533 16.1857 12.0736 15.9257 12.2878C15.6656 12.502 15.5195 12.7925 15.5195 13.0954C15.5195 13.3983 15.6656 13.6889 15.9257 13.9031C16.1857 14.1172 16.5384 14.2376 16.9062 14.2376H18.2928C18.6606 14.2376 19.0133 14.3579 19.2734 14.5721C19.5334 14.7863 19.6795 15.0768 19.6795 15.3797C19.6795 15.6826 19.5334 15.9732 19.2734 16.1873C19.0133 16.4015 18.6606 16.5219 18.2928 16.5219H16.9062C16.6548 16.5288 16.4059 16.4794 16.1861 16.3788C15.9663 16.2782 15.7838 16.1303 15.6582 15.9508" stroke="#80848C" stroke-width="1.7" stroke-linecap="round" stroke-linejoin="round"/>
<path d="M17.5986 16.5218V17.6639M17.5986 10.811V11.9532V10.811Z" stroke="#80848C" stroke-width="1.7" stroke-linecap="round" stroke-linejoin="round"/>
</svg>
