<svg width="30" height="30" viewBox="0 0 30 30" fill="none" xmlns="http://www.w3.org/2000/svg">
<path d="M23.5625 27.4688C23.3958 27.4688 23.2396 27.4427 23.0938 27.3906C22.9479 27.3385 22.8125 27.25 22.6875 27.125L16.3125 20.75C16.1875 20.625 16.099 20.4896 16.0469 20.3438C15.9948 20.1979 15.9688 20.0417 15.9688 19.875C15.9688 19.7083 15.9948 19.5521 16.0469 19.4062C16.099 19.2604 16.1875 19.125 16.3125 19L18.9688 16.3438C19.0938 16.2188 19.2292 16.1302 19.375 16.0781C19.5208 16.026 19.6771 16 19.8438 16C20.0104 16 20.1667 16.026 20.3125 16.0781C20.4583 16.1302 20.5938 16.2188 20.7188 16.3438L27.0938 22.7188C27.2188 22.8438 27.3073 22.9792 27.3594 23.125C27.4115 23.2708 27.4375 23.4271 27.4375 23.5938C27.4375 23.7604 27.4115 23.9167 27.3594 24.0625C27.3073 24.2083 27.2188 24.3438 27.0938 24.4688L24.4375 27.125C24.3125 27.25 24.1771 27.3385 24.0312 27.3906C23.8854 27.4427 23.7292 27.4688 23.5625 27.4688ZM23.5625 24.5L24.4688 23.5938L19.875 19L18.9688 19.9062L23.5625 24.5ZM6.40625 27.5C6.23958 27.5 6.07812 27.4688 5.92188 27.4062C5.76562 27.3438 5.625 27.25 5.5 27.125L2.875 24.5C2.75 24.375 2.65625 24.2344 2.59375 24.0781C2.53125 23.9219 2.5 23.7604 2.5 23.5938C2.5 23.4271 2.53125 23.2708 2.59375 23.125C2.65625 22.9792 2.75 22.8438 2.875 22.7188L9.5 16.0938H12.1562L13.2188 15.0312L8.0625 9.875H6.28125L2.5 6.09375L6.03125 2.5625L9.8125 6.34375V8.125L14.9688 13.2812L18.5938 9.65625L17.25 8.3125L19 6.5625H15.4688L14.5938 5.6875L19.0312 1.25L19.9062 2.125V5.65625L21.6562 3.90625L26.0938 8.34375C26.4479 8.69792 26.7188 9.09896 26.9062 9.54688C27.0938 9.99479 27.1875 10.4688 27.1875 10.9688C27.1875 11.4688 27.0938 11.9479 26.9062 12.4062C26.7188 12.8646 26.4479 13.2708 26.0938 13.625L23.4375 10.9688L21.6875 12.7188L20.375 11.4062L13.9062 17.875V20.5L7.28125 27.125C7.15625 27.25 7.02083 27.3438 6.875 27.4062C6.72917 27.4688 6.57292 27.5 6.40625 27.5ZM6.40625 24.5L11.7188 19.1875V18.2812H10.8125L5.5 23.5938L6.40625 24.5ZM6.40625 24.5L5.5 23.5938L5.96875 24.0312L6.40625 24.5Z" fill="#979797"/>
</svg>
