<svg width="26" height="26" viewBox="0 0 26 26" fill="none" xmlns="http://www.w3.org/2000/svg">
<path d="M13.0002 21.6668C12.4043 21.6668 11.8943 21.4547 11.47 21.0304C11.0456 20.6061 10.8335 20.096 10.8335 19.5002C10.8335 18.9043 11.0456 18.3943 11.47 17.97C11.8943 17.5456 12.4043 17.3335 13.0002 17.3335C13.596 17.3335 14.1061 17.5456 14.5304 17.97C14.9547 18.3943 15.1668 18.9043 15.1668 19.5002C15.1668 20.096 14.9547 20.6061 14.5304 21.0304C14.1061 21.4547 13.596 21.6668 13.0002 21.6668ZM13.0002 15.1668C12.4043 15.1668 11.8943 14.9547 11.47 14.5304C11.0456 14.1061 10.8335 13.596 10.8335 13.0002C10.8335 12.4043 11.0456 11.8943 11.47 11.47C11.8943 11.0456 12.4043 10.8335 13.0002 10.8335C13.596 10.8335 14.1061 11.0456 14.5304 11.47C14.9547 11.8943 15.1668 12.4043 15.1668 13.0002C15.1668 13.596 14.9547 14.1061 14.5304 14.5304C14.1061 14.9547 13.596 15.1668 13.0002 15.1668ZM13.0002 8.66683C12.4043 8.66683 11.8943 8.45468 11.47 8.03037C11.0456 7.60607 10.8335 7.096 10.8335 6.50016C10.8335 5.90433 11.0456 5.39426 11.47 4.96995C11.8943 4.54565 12.4043 4.3335 13.0002 4.3335C13.596 4.3335 14.1061 4.54565 14.5304 4.96995C14.9547 5.39426 15.1668 5.90433 15.1668 6.50016C15.1668 7.096 14.9547 7.60607 14.5304 8.03037C14.1061 8.45468 13.596 8.66683 13.0002 8.66683Z" fill="#5F6368"/>
</svg>
