<svg width="27" height="27" viewBox="0 0 27 27" fill="none" xmlns="http://www.w3.org/2000/svg">
<path d="M6.58125 19.2375C7.5375 18.5063 8.60625 17.9297 9.7875 17.5078C10.9688 17.0859 12.2063 16.875 13.5 16.875C14.7937 16.875 16.0312 17.0859 17.2125 17.5078C18.3937 17.9297 19.4625 18.5063 20.4187 19.2375C21.075 18.4688 21.5859 17.5969 21.9516 16.6219C22.3172 15.6469 22.5 14.6062 22.5 13.5C22.5 11.0062 21.6234 8.88281 19.8703 7.12969C18.1172 5.37656 15.9937 4.5 13.5 4.5C11.0062 4.5 8.88281 5.37656 7.12969 7.12969C5.37656 8.88281 4.5 11.0062 4.5 13.5C4.5 14.6062 4.68281 15.6469 5.04844 16.6219C5.41406 17.5969 5.925 18.4688 6.58125 19.2375ZM13.5 14.625C12.3938 14.625 11.4609 14.2453 10.7016 13.4859C9.94219 12.7266 9.5625 11.7937 9.5625 10.6875C9.5625 9.58125 9.94219 8.64844 10.7016 7.88906C11.4609 7.12969 12.3938 6.75 13.5 6.75C14.6062 6.75 15.5391 7.12969 16.2984 7.88906C17.0578 8.64844 17.4375 9.58125 17.4375 10.6875C17.4375 11.7937 17.0578 12.7266 16.2984 13.4859C15.5391 14.2453 14.6062 14.625 13.5 14.625ZM13.5 24.75C11.9437 24.75 10.4812 24.4547 9.1125 23.8641C7.74375 23.2734 6.55312 22.4719 5.54062 21.4594C4.52813 20.4469 3.72656 19.2563 3.13594 17.8875C2.54531 16.5187 2.25 15.0562 2.25 13.5C2.25 11.9437 2.54531 10.4812 3.13594 9.1125C3.72656 7.74375 4.52813 6.55312 5.54062 5.54062C6.55312 4.52813 7.74375 3.72656 9.1125 3.13594C10.4812 2.54531 11.9437 2.25 13.5 2.25C15.0562 2.25 16.5187 2.54531 17.8875 3.13594C19.2563 3.72656 20.4469 4.52813 21.4594 5.54062C22.4719 6.55312 23.2734 7.74375 23.8641 9.1125C24.4547 10.4812 24.75 11.9437 24.75 13.5C24.75 15.0562 24.4547 16.5187 23.8641 17.8875C23.2734 19.2563 22.4719 20.4469 21.4594 21.4594C20.4469 22.4719 19.2563 23.2734 17.8875 23.8641C16.5187 24.4547 15.0562 24.75 13.5 24.75ZM13.5 22.5C14.4937 22.5 15.4312 22.3547 16.3125 22.0641C17.1937 21.7734 18 21.3562 18.7312 20.8125C18 20.2687 17.1937 19.8516 16.3125 19.5609C15.4312 19.2703 14.4937 19.125 13.5 19.125C12.5062 19.125 11.5687 19.2703 10.6875 19.5609C9.80625 19.8516 9 20.2687 8.26875 20.8125C9 21.3562 9.80625 21.7734 10.6875 22.0641C11.5687 22.3547 12.5062 22.5 13.5 22.5ZM13.5 12.375C13.9875 12.375 14.3906 12.2156 14.7094 11.8969C15.0281 11.5781 15.1875 11.175 15.1875 10.6875C15.1875 10.2 15.0281 9.79688 14.7094 9.47812C14.3906 9.15937 13.9875 9 13.5 9C13.0125 9 12.6094 9.15937 12.2906 9.47812C11.9719 9.79688 11.8125 10.2 11.8125 10.6875C11.8125 11.175 11.9719 11.5781 12.2906 11.8969C12.6094 12.2156 13.0125 12.375 13.5 12.375Z" fill="#5F6368"/>
</svg>
