<svg width="27" height="27" viewBox="0 0 27 27" fill="none" xmlns="http://www.w3.org/2000/svg">
<path d="M4.5 21.375V19.125H6.75V11.25C6.75 9.69375 7.21875 8.31094 8.15625 7.10156C9.09375 5.89219 10.3125 5.1 11.8125 4.725V3.9375C11.8125 3.46875 11.9766 3.07031 12.3047 2.74219C12.6328 2.41406 13.0312 2.25 13.5 2.25C13.9688 2.25 14.3672 2.41406 14.6953 2.74219C15.0234 3.07031 15.1875 3.46875 15.1875 3.9375V4.725C16.6875 5.1 17.9062 5.89219 18.8438 7.10156C19.7812 8.31094 20.25 9.69375 20.25 11.25V19.125H22.5V21.375H4.5ZM13.5 24.75C12.8812 24.75 12.3516 24.5297 11.9109 24.0891C11.4703 23.6484 11.25 23.1187 11.25 22.5H15.75C15.75 23.1187 15.5297 23.6484 15.0891 24.0891C14.6484 24.5297 14.1187 24.75 13.5 24.75ZM9 19.125H18V11.25C18 10.0125 17.5594 8.95312 16.6781 8.07187C15.7969 7.19062 14.7375 6.75 13.5 6.75C12.2625 6.75 11.2031 7.19062 10.3219 8.07187C9.44062 8.95312 9 10.0125 9 11.25V19.125Z" fill="#5F6368"/>
</svg>
