<svg width="35" height="35" viewBox="0 0 35 35" fill="none" xmlns="http://www.w3.org/2000/svg">
<path d="M26.2503 18.9585V16.0418H32.0837V18.9585H26.2503ZM28.0003 29.1668L23.3337 25.6668L25.0837 23.3335L29.7503 26.8335L28.0003 29.1668ZM25.0837 11.6668L23.3337 9.3335L28.0003 5.8335L29.7503 8.16683L25.0837 11.6668ZM7.29199 27.7085V21.8752H5.83366C5.03158 21.8752 4.34494 21.5896 3.77376 21.0184C3.20258 20.4472 2.91699 19.7606 2.91699 18.9585V16.0418C2.91699 15.2397 3.20258 14.5531 3.77376 13.9819C4.34494 13.4108 5.03158 13.1252 5.83366 13.1252H11.667L18.9587 8.75016V26.2502L11.667 21.8752H10.2087V27.7085H7.29199ZM16.042 21.0731V13.9272L12.4691 16.0418H5.83366V18.9585H12.4691L16.042 21.0731ZM20.417 22.3856V12.6147C21.0732 13.1981 21.6019 13.909 22.0029 14.7476C22.404 15.5861 22.6045 16.5036 22.6045 17.5002C22.6045 18.4967 22.404 19.4142 22.0029 20.2528C21.6019 21.0913 21.0732 21.8022 20.417 22.3856Z" fill="#979797"/>
</svg>
