<svg width="27" height="27" viewBox="0 0 27 27" fill="none" xmlns="http://www.w3.org/2000/svg">
<path d="M18 12.375V10.125H24.75V12.375H18ZM10.125 13.5C8.8875 13.5 7.82812 13.0594 6.94687 12.1781C6.06562 11.2969 5.625 10.2375 5.625 9C5.625 7.7625 6.06562 6.70312 6.94687 5.82187C7.82812 4.94062 8.8875 4.5 10.125 4.5C11.3625 4.5 12.4219 4.94062 13.3031 5.82187C14.1844 6.70312 14.625 7.7625 14.625 9C14.625 10.2375 14.1844 11.2969 13.3031 12.1781C12.4219 13.0594 11.3625 13.5 10.125 13.5ZM1.125 22.5V19.35C1.125 18.7125 1.28906 18.1266 1.61719 17.5922C1.94531 17.0578 2.38125 16.65 2.925 16.3687C4.0875 15.7875 5.26875 15.3516 6.46875 15.0609C7.66875 14.7703 8.8875 14.625 10.125 14.625C11.3625 14.625 12.5812 14.7703 13.7812 15.0609C14.9812 15.3516 16.1625 15.7875 17.325 16.3687C17.8687 16.65 18.3047 17.0578 18.6328 17.5922C18.9609 18.1266 19.125 18.7125 19.125 19.35V22.5H1.125ZM3.375 20.25H16.875V19.35C16.875 19.1437 16.8234 18.9562 16.7203 18.7875C16.6172 18.6187 16.4812 18.4875 16.3125 18.3937C15.3 17.8875 14.2781 17.5078 13.2469 17.2547C12.2156 17.0016 11.175 16.875 10.125 16.875C9.075 16.875 8.03437 17.0016 7.00312 17.2547C5.97187 17.5078 4.95 17.8875 3.9375 18.3937C3.76875 18.4875 3.63281 18.6187 3.52969 18.7875C3.42656 18.9562 3.375 19.1437 3.375 19.35V20.25ZM10.125 11.25C10.7437 11.25 11.2734 11.0297 11.7141 10.5891C12.1547 10.1484 12.375 9.61875 12.375 9C12.375 8.38125 12.1547 7.85156 11.7141 7.41094C11.2734 6.97031 10.7437 6.75 10.125 6.75C9.50625 6.75 8.97656 6.97031 8.53594 7.41094C8.09531 7.85156 7.875 8.38125 7.875 9C7.875 9.61875 8.09531 10.1484 8.53594 10.5891C8.97656 11.0297 9.50625 11.25 10.125 11.25Z" fill="#EC221F"/>
</svg>
