<svg width="26" height="26" viewBox="0 0 26 26" fill="none" xmlns="http://www.w3.org/2000/svg">
<g clip-path="url(#clip0_797_6274)">
<path d="M20.6057 26.1859L14.0396 19.6199C13.5185 20.0367 12.9192 20.3668 12.2418 20.61C11.5643 20.8532 10.8435 20.9747 10.0792 20.9747C8.18579 20.9747 6.58336 20.319 5.27189 19.0075C3.96042 17.6961 3.30469 16.0936 3.30469 14.2003C3.30469 12.3069 3.96042 10.7045 5.27189 9.39299C6.58336 8.08152 8.18579 7.42578 10.0792 7.42578C11.9726 7.42578 13.575 8.08152 14.8864 9.39299C16.1979 10.7045 16.8537 12.3069 16.8537 14.2003C16.8537 14.9646 16.7321 15.6854 16.4889 16.3629C16.2457 17.0403 15.9156 17.6396 15.4988 18.1607L22.0648 24.7268L20.6057 26.1859ZM10.0792 18.8903C11.382 18.8903 12.4893 18.4343 13.4013 17.5224C14.3132 16.6104 14.7692 15.503 14.7692 14.2003C14.7692 12.8975 14.3132 11.7901 13.4013 10.8782C12.4893 9.96621 11.382 9.51024 10.0792 9.51024C8.77639 9.51024 7.66902 9.96621 6.75707 10.8782C5.84512 11.7901 5.38914 12.8975 5.38914 14.2003C5.38914 15.503 5.84512 16.6104 6.75707 17.5224C7.66902 18.4343 8.77639 18.8903 10.0792 18.8903Z" fill="#5F6368"/>
</g>
<defs>
<clipPath id="clip0_797_6274">
<rect width="25.0135" height="25.0135" fill="white" transform="translate(0.177734 0.805664)"/>
</clipPath>
</defs>
</svg>
