<svg width="30" height="30" viewBox="0 0 30 30" fill="none" xmlns="http://www.w3.org/2000/svg">
<path d="M7.5 27.5C6.8125 27.5 6.22396 27.2552 5.73438 26.7656C5.24479 26.276 5 25.6875 5 25V5C5 4.3125 5.24479 3.72396 5.73438 3.23438C6.22396 2.74479 6.8125 2.5 7.5 2.5H22.5C23.1875 2.5 23.776 2.74479 24.2656 3.23438C24.7552 3.72396 25 4.3125 25 5V25C25 25.6875 24.7552 26.276 24.2656 26.7656C23.776 27.2552 23.1875 27.5 22.5 27.5H18.75L17.5 25H12.5L11.25 27.5H7.5ZM7.5 25H9.6875L10.9375 22.5H19.0625L20.3125 25H22.5V5H7.5V25ZM10 18.75H20V18.0625C20 16.9792 19.4792 16.1979 18.4375 15.7188C17.3958 15.2396 16.25 15 15 15C13.75 15 12.6042 15.2396 11.5625 15.7188C10.5208 16.1979 10 16.9792 10 18.0625V18.75ZM15 13.75C15.6875 13.75 16.276 13.5052 16.7656 13.0156C17.2552 12.526 17.5 11.9375 17.5 11.25C17.5 10.5625 17.2552 9.97396 16.7656 9.48438C16.276 8.99479 15.6875 8.75 15 8.75C14.3125 8.75 13.724 8.99479 13.2344 9.48438C12.7448 9.97396 12.5 10.5625 12.5 11.25C12.5 11.9375 12.7448 12.526 13.2344 13.0156C13.724 13.5052 14.3125 13.75 15 13.75Z" fill="#979797"/>
</svg>
